<svg xmlns="http://www.w3.org/2000/svg" xmlns:xlink="http://www.w3.org/1999/xlink" width="202" height="77" viewBox="0 0 202 77">
    <defs>
        <path id="a" d="M.492 1.09l-.147.019c4.69.093 9.446 8.018 11.437 11.545 2.025 3.6 21.89 35.903 21.89 35.903h15.516S25.985 9.763 23.663 6.017C21.343 2.274 18.726.819 12.508.819 6.599.82 3.292.946.492 1.09"/>
        <linearGradient id="b" x1="49.999%" x2="49.999%" y1="99.838%" y2="-3.851%">
            <stop offset="0%" stop-color="#0089CF"/>
            <stop offset="100%" stop-color="#005B8E"/>
        </linearGradient>
        <path id="d" d="M39.34.802c-5.085.016-8.125.134-10.694.253-3.139.4-5.763 1.527-7.935 4.945C18.352 9.728.55 40.177.55 40.177h15.524s15.248-27.05 17.421-30.579c2.749-4.453 5.244-10.433 13.111-7.96l-.21-.074C45.358 1.218 44.162 1 42.732.892l-.44-.037c-.18 0-.352-.018-.529-.018L41.48.82c-.28 0-.562-.012-.852-.017H39.34z"/>
        <linearGradient id="e" x1="50.001%" x2="50.001%" y1="99.222%" y2="2.681%">
            <stop offset="0%" stop-color="#FDB823"/>
            <stop offset="100%" stop-color="#DD7723"/>
        </linearGradient>
    </defs>
    <g fill="none" fill-rule="evenodd">
        <g transform="translate(152.402 -.165)">
            <mask id="c" fill="#fff">
                <use xlink:href="#a"/>
            </mask>
            <path fill="url(#b)" d="M.492 1.09l-.147.019c4.69.093 9.446 8.018 11.437 11.545 2.025 3.6 21.89 35.903 21.89 35.903h15.516S25.985 9.763 23.663 6.017C21.343 2.274 18.726.819 12.508.819 6.599.82 3.292.946.492 1.09" mask="url(#c)"/>
        </g>
        <path fill="#0089CF" d="M140.42 40.012h-15.404l14.877-5.453h17.362z"/>
        <g transform="translate(124.446 -.165)">
            <mask id="f" fill="#fff">
                <use xlink:href="#d"/>
            </mask>
            <path fill="url(#e)" d="M39.34.802c-5.085.016-8.125.134-10.694.253-3.139.4-5.763 1.527-7.935 4.945C18.352 9.728.55 40.177.55 40.177h15.524s15.248-27.05 17.421-30.579c2.749-4.453 5.244-10.433 13.111-7.96l-.21-.074C45.358 1.218 44.162 1 42.732.892l-.44-.037c-.18 0-.352-.018-.529-.018L41.48.82c-.28 0-.562-.012-.852-.017H39.34z" mask="url(#f)"/>
        </g>
        <path fill="#005D93" d="M5.755 44.371L0 62.518h3.617l1.152-3.76h6.77l1.178 3.76h3.618L10.58 44.371H5.755zm2.412 2.834l2.495 8.583H5.619l2.548-8.583zM18.511 62.519h3.198V48.404H18.51zM29.66 58.13h-1.876v4.389h-3.197V48.403h5.905c3.453 0 4.732 1.356 4.732 4.005v1.74c0 1.758-.64 2.946-2.068 3.539l3.433 4.832h-3.795L29.66 58.13zm2.366-5.425c0-1.059-.404-1.483-1.705-1.483h-2.537v4.155h2.537c1.365 0 1.705-.488 1.705-1.549v-1.123zM38.292 62.518V48.403h3.199v11.296h5.627v2.82zM49.036 62.519h3.198V48.404h-3.198zM58.159 53.236v9.283H55.11V48.402h3.923l4.667 9.73v-9.73h3.05V62.52h-3.945zM69.52 62.518V48.403h8.932v2.819h-5.734v2.585h5.286v2.82h-5.286v3.072h5.734v2.82zM90.16 62.793c-2.1 0-4.532-.522-5.749-1.1l.609-2.72c1.713.523 3.372.852 5.197.852 2.516 0 2.93-.522 2.93-2.28 0-2.035-.056-2.2-3.373-2.914-4.45-.989-5.06-1.842-5.06-5.716 0-3.325 1.521-4.975 6.193-4.975 1.603 0 3.538.194 5.363.605l-.386 2.913c-1.522-.33-3.318-.55-4.92-.55-2.352 0-2.765.495-2.765 2.089 0 2.089.055 2.144 3.233 2.913 4.948 1.181 5.197 1.979 5.197 5.635 0 3.462-1.022 5.248-6.468 5.248M99.398 62.518V48.403h8.932v2.819h-5.734v2.585h5.286v2.82h-5.286v3.072h5.734v2.82zM115.855 58.13h-1.876v4.389h-3.198V48.403h5.905c3.454 0 4.733 1.356 4.733 4.005v1.74c0 1.758-.64 2.946-2.068 3.539l3.432 4.832h-3.795l-3.133-4.388zm2.366-5.425c0-1.059-.405-1.483-1.706-1.483h-2.536v4.155h2.536c1.365 0 1.706-.488 1.706-1.549v-1.123zM131.138 62.518h-4.563l-4.006-14.115h3.282l3.007 11.233 3.005-11.233h3.282zM136.637 62.519h3.197V48.404h-3.197zM145.59 57.898c0 1.23.405 1.95 1.982 1.95 1.024 0 2.431-.127 3.667-.339l.448 2.777a19.258 19.258 0 0 1-4.115.445c-3.58 0-5.18-1.76-5.18-4.325v-5.891c0-2.565 1.6-4.324 5.18-4.324 1.428 0 2.708.149 4.115.446l-.448 2.776c-1.236-.212-2.643-.34-3.667-.34-1.577 0-1.982.721-1.982 1.95v4.875zM153.818 62.518V48.403h8.932v2.819h-5.734v2.585h5.286v2.82h-5.286v3.072h5.734v2.82zM169.358 62.73c-1.642 0-3.368-.36-4.583-.91l.533-2.46c1.3.403 2.62.679 4.092.679 1.641 0 1.961-.318 1.961-1.506 0-1.271-.064-1.419-2.387-1.928-3.432-.742-3.945-1.42-3.945-4.471 0-2.82 1.003-3.943 4.904-3.943 1.236 0 2.728.128 4.305.468l-.318 2.669c-1.62-.275-2.665-.403-3.944-.403-1.428 0-1.75.255-1.75 1.293 0 1.356.065 1.378 2.304 1.907 3.837.912 4.03 1.653 4.03 4.43 0 2.797-.917 4.175-5.202 4.175"/>
        <path fill="#F7941D" d="M122.236 67.49v9.308h5.736v-1.55h-3.965v-2.405h3.654v-1.551h-3.654v-2.25h3.965V67.49zM132.341 76.938c-1.068 0-2.305-.266-2.922-.56l.309-1.383c.87.266 1.714.433 2.641.433 1.28 0 1.492-.265 1.492-1.16 0-1.034-.03-1.118-1.716-1.482-2.264-.502-2.572-.936-2.572-2.905 0-1.692.772-2.53 3.149-2.53.814 0 1.798.098 2.726.306l-.196 1.483a12.328 12.328 0 0 0-2.503-.28c-1.194 0-1.405.252-1.405 1.063 0 1.06.028 1.09 1.645 1.48 2.516.6 2.642 1.007 2.642 2.865 0 1.761-.52 2.67-3.29 2.67M136.684 67.49v1.552h2.616V76.8h1.77v-7.757h2.615V67.49zM151.71 74.073c0 1.55-.9 2.865-3.542 2.865-2.643 0-3.542-1.314-3.542-2.865v-3.857c0-1.552.899-2.866 3.542-2.866 2.642 0 3.542 1.314 3.542 2.866v3.857zm-5.313-.097c0 .88.448 1.41 1.771 1.41 1.321 0 1.771-.53 1.771-1.41v-3.662c0-.881-.45-1.413-1.77-1.413-1.324 0-1.772.532-1.772 1.413v3.662zM159.525 67.49v7.072l-3.557-7.072h-2.362v9.308h1.729v-7.057l3.557 7.057h2.362V67.49zM163.43 76.797h1.772V67.49h-1.771zM169.63 67.49l-2.952 9.308h1.855l.59-1.93h3.473l.604 1.93h1.856l-2.952-9.308h-2.474zm1.237 1.454l1.279 4.402h-2.586l1.307-4.402z"/>
    </g>
</svg>
