<svg xmlns="http://www.w3.org/2000/svg" width="28" height="28" viewBox="0 0 28 28">
    <g fill="#FFF" fill-rule="nonzero">
        <path d="M26.713.422H1.287C.717.422.25.89.25 1.46v25.079c0 .57.467 1.038 1.037 1.038h25.426c.57 0 1.037-.468 1.037-1.038V1.46c0-.57-.467-1.038-1.037-1.038zm-1.891 20.549H2.875V3.221h21.947v17.75z"/>
        <circle cx="7.104" cy="7.75" r="3.048"/>
        <path d="M18.002 9.301c-.536-.96-1.453-.983-2.037-.05l-2.871 4.587c-.584.933-1.747 1.229-2.585.658-.839-.571-2.106-.352-2.818.486l-2.86 3.371c-.712.84-.394 1.525.706 1.525h16.378c1.1 0 1.561-.785 1.024-1.746l-4.937-8.831z"/>
    </g>
</svg>
